<svg width="64" height="64" viewBox="0 0 64 64" fill="none" xmlns="http://www.w3.org/2000/svg">
<path fill-rule="evenodd" clip-rule="evenodd" d="M32.5003 20.5223C24.4921 20.5223 18.0003 27.0142 18.0003 35.0223C18.0003 43.0304 24.4921 49.5223 32.5003 49.5223C40.5084 49.5223 47.0003 43.0304 47.0003 35.0223C47.0003 27.0142 40.5084 20.5223 32.5003 20.5223ZM16.0003 35.0223C16.0003 25.9096 23.3876 18.5223 32.5003 18.5223C41.613 18.5223 49.0003 25.9096 49.0003 35.0223C49.0003 44.135 41.613 51.5223 32.5003 51.5223C23.3876 51.5223 16.0003 44.135 16.0003 35.0223Z" fill="rgb(0, 210, 233)"/>
<path fill-rule="evenodd" clip-rule="evenodd" d="M10.9271 28.0018C11.2147 27.5303 11.8301 27.3812 12.3016 27.6687L24.521 35.1213C24.9925 35.4089 25.1416 36.0242 24.854 36.4958C24.5664 36.9673 23.9511 37.1164 23.4796 36.8288L11.2602 29.3762C10.7887 29.0887 10.6396 28.4733 10.9271 28.0018ZM8.98751 32.6636C9.22472 32.1649 9.82133 31.9529 10.3201 32.1901L23.1066 38.2714C23.6053 38.5086 23.8173 39.1053 23.5801 39.604C23.3429 40.1028 22.7463 40.3148 22.2475 40.0776L9.46107 33.9962C8.96232 33.759 8.7503 33.1624 8.98751 32.6636ZM7.04621 37.3641C7.21169 36.8372 7.77298 36.5442 8.29989 36.7097L21.8425 40.9628C22.3694 41.1283 22.6624 41.6896 22.4969 42.2165C22.3314 42.7434 21.7702 43.0364 21.2432 42.8709L7.70064 38.6178C7.17373 38.4523 6.88073 37.8911 7.04621 37.3641Z" fill="rgb(0, 210, 233)"/>
<path fill-rule="evenodd" clip-rule="evenodd" d="M53.0734 28.0023C53.361 28.4738 53.2119 29.0891 52.7403 29.3767L40.521 36.8293C40.0495 37.1169 39.4341 36.9677 39.1465 36.4962C38.859 36.0247 39.0081 35.4094 39.4796 35.1218L51.699 27.6692C52.1705 27.3817 52.7858 27.5308 53.0734 28.0023ZM55.013 32.6641C55.2502 33.1629 55.0382 33.7595 54.5395 33.9967L41.753 40.0781C41.2542 40.3153 40.6576 40.1032 40.4204 39.6045C40.1832 39.1057 40.3952 38.5091 40.894 38.2719L53.6805 32.1906C54.1792 31.9533 54.7758 32.1654 55.013 32.6641ZM56.9543 37.3646C57.1198 37.8915 56.8268 38.4528 56.2999 38.6183L42.7573 42.8714C42.2304 43.0369 41.6691 42.7439 41.5036 42.217C41.3381 41.6901 41.6311 41.1288 42.158 40.9633L55.7006 36.7102C56.2276 36.5447 56.7888 36.8377 56.9543 37.3646Z" fill="rgb(0, 210, 233)"/>
<path fill-rule="evenodd" clip-rule="evenodd" d="M15.8622 14.5764C15.3228 12.7558 17.3863 11.2786 18.9359 12.3762L28.5783 19.2063C29.029 19.5255 29.1355 20.1496 28.8163 20.6003C28.4971 21.051 27.8729 21.1576 27.4222 20.8383L17.7798 14.0083L20.9591 24.7382C21.116 25.2677 20.8139 25.8242 20.2844 25.9811C19.7548 26.138 19.1984 25.8359 19.0415 25.3064L15.8622 14.5764Z" fill="rgb(0, 210, 233)"/>
<path fill-rule="evenodd" clip-rule="evenodd" d="M49.1383 14.5764C49.6778 12.7558 47.6142 11.2786 46.0647 12.3762L36.4222 19.2063C35.9716 19.5255 35.865 20.1496 36.1842 20.6003C36.5035 21.051 37.1276 21.1576 37.5783 20.8383L47.2207 14.0083L44.0415 24.7382C43.8846 25.2677 44.1866 25.8242 44.7162 25.9811C45.2457 26.138 45.8022 25.8359 45.9591 25.3064L49.1383 14.5764Z" fill="rgb(0, 210, 233)"/>
<path fill-rule="evenodd" clip-rule="evenodd" d="M29.4003 38.2223C28.4114 36.9038 29.3522 35.0223 31.0003 35.0223H33.0003C34.6484 35.0223 35.5891 36.9038 34.6003 38.2223L33.0003 40.3556V42.0223H35.0003C35.5525 42.0223 36.0003 42.47 36.0003 43.0223C36.0003 43.5746 35.5525 44.0223 35.0003 44.0223H29.0003C28.448 44.0223 28.0003 43.5746 28.0003 43.0223C28.0003 42.47 28.448 42.0223 29.0003 42.0223H31.0003V40.3556L29.4003 38.2223ZM32.0003 38.3556L33.0003 37.0223H31.0003L32.0003 38.3556Z" fill="rgb(0, 210, 233)"/>
<path fill-rule="evenodd" clip-rule="evenodd" d="M25.5003 31.5223C25.2241 31.5223 25.0003 31.7462 25.0003 32.0223C25.0003 32.2984 25.2241 32.5223 25.5003 32.5223C25.7764 32.5223 26.0003 32.2984 26.0003 32.0223C26.0003 31.7462 25.7764 31.5223 25.5003 31.5223ZM23.0003 32.0223C23.0003 30.6416 24.1196 29.5223 25.5003 29.5223C26.881 29.5223 28.0003 30.6416 28.0003 32.0223C28.0003 33.403 26.881 34.5223 25.5003 34.5223C24.1196 34.5223 23.0003 33.403 23.0003 32.0223Z" fill="rgb(0, 210, 233)"/>
<path fill-rule="evenodd" clip-rule="evenodd" d="M38.5003 31.5223C38.2241 31.5223 38.0003 31.7462 38.0003 32.0223C38.0003 32.2984 38.2241 32.5223 38.5003 32.5223C38.7764 32.5223 39.0003 32.2984 39.0003 32.0223C39.0003 31.7462 38.7764 31.5223 38.5003 31.5223ZM36.0003 32.0223C36.0003 30.6416 37.1196 29.5223 38.5003 29.5223C39.881 29.5223 41.0003 30.6416 41.0003 32.0223C41.0003 33.403 39.881 34.5223 38.5003 34.5223C37.1196 34.5223 36.0003 33.403 36.0003 32.0223Z" fill="rgb(0, 210, 233)"/>
</svg>
